# xmcd
#
# Track frame offsets:
#	150
#	16383
#	30768
#	42190
#	58339
#	74367
#	91558
#	104379
#	121422
#	144113
#
# Disc length: 2110 seconds
# Revision: 0
# Processed by: cddbd v1.5.2PL0 Copyright (c) Steve Scherf et al.
# Submitted via: dBpowerAMP V12.0
#
DISCID=77083c0a
DTITLE=Circa Blue - Once Upon A Time
DYEAR=2015
DGENRE=Country
TTITLE0=Carolina Dust
TTITLE1=Before You Leave Here
TTITLE2=Once Upon a Time
TTITLE3=Angeline the Baker
TTITLE4=Cold Frosty Morning
TTITLE5=I Sing Your Song
TTITLE6=Tripped Stumbled and Fell
TTITLE7=Queen of Hearts
TTITLE8=Rain and Snow
TTITLE9=Whispers of the North
EXTD=
EXTT0=
EXTT1=
EXTT2=
EXTT3=
EXTT4=
EXTT5=
EXTT6=
EXTT7=
EXTT8=
EXTT9=
PLAYORDER=
